<svg width="647" height="136" viewBox="0 0 647 136" fill="none" xmlns="http://www.w3.org/2000/svg">
<path d="M251.099 103.6C251.099 114.1 251.099 124.5 251.099 135.1C167.399 135.1 83.8992 135.1 0.199219 135.1C0.199219 124.6 0.199219 114.2 0.199219 103.6C83.7992 103.6 167.399 103.6 251.099 103.6Z" fill="#E5241F"/>
<path d="M515.602 0C515.602 4.6 515.602 8.90001 515.602 13.6C514.902 13.6 514.202 13.6 513.502 13.6C483.502 13.6 453.502 13.6 423.502 13.6C420.602 13.6 417.902 14.2 416.002 16.5C414.902 17.8 413.902 19.5 413.802 21C413.502 26.6 413.702 32.3 413.702 38.1C447.702 38.1 481.502 38.1 515.502 38.1C515.502 42.7 515.502 47.2 515.502 51.8C481.602 51.8 447.802 51.8 413.802 51.8C413.702 52.3 413.602 52.7 413.602 53.1C413.602 58 413.602 63 413.602 67.9C413.602 72.2 417.102 75.9 421.502 76.2C422.202 76.3 423.002 76.2 423.702 76.2C453.502 76.2 483.302 76.2 513.102 76.2C513.802 76.2 514.602 76.2 515.402 76.2C515.402 80.8 515.402 85.2 515.402 89.8C514.902 89.8 514.302 89.9 513.802 89.9C483.302 89.9 452.802 89.9 422.302 89.9C413.502 89.9 406.502 86.3 401.602 78.9C399.502 75.7 398.502 72.1 398.502 68.2C398.502 53.1 398.702 38 398.402 22.9C398.202 11.8 406.002 3.09999 416.402 0.799988C418.502 0.299988 420.702 0.100006 422.802 0.100006C453.002 0.100006 483.202 0.100006 513.302 0.100006C514.202 6.10203e-06 514.802 0 515.602 0Z" fill="white"/>
<path d="M176.899 51.8C176.899 47.2 176.899 42.8 176.899 38.2C201.599 38.2 226.199 38.2 251.099 38.2C251.099 38.8 251.099 39.5 251.099 40.1C251.099 49.1 250.899 58.1 251.099 67.1C251.399 78.9 242.399 87.6 231.899 89.4C230.299 89.7 228.599 89.8 226.899 89.8C202.799 89.8 178.699 89.8 154.599 89.8C146.599 89.8 139.799 86.8 134.899 80.4C132.099 76.8 130.799 72.7 130.799 68C130.799 52.9 130.999 37.8 130.699 22.7C130.499 12 137.999 3.10001 148.599 0.700012C150.699 0.200012 152.899 0 154.999 0C185.099 0 215.099 0 245.199 0C245.899 0 246.699 0 247.599 0C247.599 4.5 247.599 8.90001 247.599 13.6C246.899 13.6 246.099 13.6 245.299 13.6C215.499 13.6 185.799 13.6 155.999 13.6C153.399 13.6 150.999 14 148.899 15.7C146.899 17.3 145.799 19.3 145.799 21.9C145.799 37.2 145.799 52.5 145.799 67.7C145.799 72.5 149.299 76.1 154.199 76.1C178.699 76.1 203.099 76.1 227.599 76.1C231.799 76.1 235.599 73.2 235.799 69.1C236.199 63.4 235.899 57.7 235.899 51.8C216.299 51.8 196.699 51.8 176.899 51.8Z" fill="#E5241F"/>
<path d="M117.001 0C117.001 4.6 117.001 9.00001 117.001 13.6C116.201 13.6 115.501 13.6 114.801 13.6C84.801 13.6 54.8009 13.6 24.8009 13.6C21.6009 13.6 18.8009 14.5 16.9009 17.1C16.2009 18.1 15.401 19.3 15.401 20.4C15.201 26.2 15.301 32.1 15.301 38.1C49.201 38.1 83.001 38.1 117.001 38.1C117.001 42.7 117.001 47.2 117.001 51.8C83.201 51.8 49.4009 51.8 15.301 51.8C15.301 64.5 15.301 77.1 15.301 89.8C10.101 89.8 5.20095 89.8 0.100951 89.8C0.100951 89.1 0.100951 88.4 0.100951 87.6C0.100951 66 0.200951 44.4 0.000950741 22.7C-0.0990493 11.7 7.70095 3.00001 18.0009 0.700012C20.1009 0.200012 22.401 0 24.601 0C54.801 0 85.0009 0 115.201 0C115.701 0 116.201 0 117.001 0Z" fill="#E5241F"/>
<path d="M646.4 0C646.4 4.6 646.4 8.90001 646.4 13.6C645.6 13.6 644.9 13.6 644.1 13.6C614.1 13.6 584.1 13.6 554.1 13.6C551.2 13.6 548.5 14.2 546.7 16.6C545.6 18 544.6 20 544.6 21.7C544.4 37.2 544.5 52.7 544.5 68.3C544.5 72.4 548.1 75.9 552.3 76.2C553.1 76.3 553.9 76.2 554.7 76.2C584.5 76.2 614.2 76.2 644 76.2C644.7 76.2 645.5 76.2 646.3 76.2C646.3 80.8 646.3 85.2 646.3 89.8C645.7 89.8 645.1 89.9 644.5 89.9C614.1 89.9 583.8 89.9 553.4 89.9C544.2 89.9 536.8 86.1 532 78.1C530.2 75.1 529.4 71.8 529.4 68.2C529.4 53.2 529.6 38.1 529.3 23.1C529.1 11.4 537.5 2.80001 547.5 0.700012C549.5 0.300012 551.6 0 553.7 0C583.8 0 613.8 0 643.9 0C644.7 0 645.5 0 646.4 0Z" fill="white"/>
<path d="M317.402 89.7C317.402 64.4 317.402 39.1 317.402 13.6C299.802 13.6 282.402 13.6 264.902 13.6C264.902 8.99998 264.902 4.59998 264.902 0.0999756C304.802 0.0999756 344.802 0.0999756 384.802 0.0999756C384.802 4.49998 384.802 8.89997 384.802 13.5C367.402 13.5 350.002 13.5 332.502 13.5C332.502 39 332.502 64.2 332.502 89.7C327.402 89.7 322.502 89.7 317.402 89.7Z" fill="white"/>
<path d="M560.5 117.9C560.5 116.2 560.5 114.9 560.5 113.3C561.1 113.3 561.7 113.3 562.3 113.3C569.3 113.3 576.2 113.3 583.2 113.3C588.7 113.3 591.1 115.8 591.1 121.2C591.1 123.6 591.1 126 591.1 128.4C591.1 132.2 588.8 135.1 585 135.2C574.6 135.4 564.1 135.3 553.5 135.3C553.5 124.7 553.5 114.2 553.5 103.6C555.1 103.6 556.7 103.6 558.4 103.6C558.4 112.6 558.4 121.5 558.4 130.5C559.2 130.5 559.8 130.6 560.4 130.6C568 130.6 575.7 130.6 583.3 130.6C585.6 130.6 585.9 130.3 585.9 127.9C585.9 125.5 585.9 123.1 585.9 120.7C585.9 118.4 585.5 118 583.2 118C576.3 118 569.4 118 562.5 118C561.9 117.9 561.3 117.9 560.5 117.9Z" fill="#E5241F"/>
<path d="M487.201 135.1C485.401 135.1 483.901 135.1 482.101 135.1C482.101 133.5 482.101 132 482.101 130.5C482.101 127.1 482.101 123.7 482.101 120.3C482.101 118.3 481.601 117.8 479.601 117.8C475.001 117.8 470.401 117.8 465.801 117.8C463.801 117.8 463.301 118.3 463.301 120.3C463.301 125.2 463.301 130 463.301 135C461.601 135 460.001 135 458.201 135C458.201 133 458.201 131 458.201 129C458.201 126 458.201 123 458.201 120C458.201 118.7 457.701 117.9 456.401 117.9C450.801 117.9 445.101 117.9 439.301 117.9C439.301 123.7 439.301 129.3 439.301 135.1C437.601 135.1 436.101 135.1 434.401 135.1C434.401 134.6 434.301 134 434.301 133.4C434.301 127.2 434.301 121.1 434.301 114.9C434.301 113.4 434.801 113.2 436.101 113.2C442.701 113.3 449.301 112.9 455.801 113.4C459.201 113.7 462.501 113.7 465.901 113.4C470.501 113 475.101 113.3 479.701 113.3C484.701 113.3 487.301 116 487.301 121C487.201 125.6 487.201 130.2 487.201 135.1Z" fill="#E5241F"/>
<path d="M385.899 135.2C382.099 135.2 378.399 135.2 374.599 135.2C369.699 135.2 367.099 132.6 367.099 127.7C367.099 125.3 367.299 122.9 367.099 120.5C366.699 116.5 369.599 113.2 374.099 113.2C381.999 113.1 389.999 113.1 397.899 113.2C402.499 113.3 404.899 115.9 404.899 120.6C404.899 123.1 404.899 125.5 404.899 128C404.899 132.4 402.199 135.1 397.799 135.1C393.699 135.2 389.799 135.2 385.899 135.2ZM385.999 130.5C389.799 130.5 393.599 130.5 397.399 130.5C398.999 130.5 399.599 129.9 399.599 128.3C399.499 125.5 399.599 122.8 399.599 120C399.599 118.5 398.899 117.9 397.499 117.9C389.699 117.9 381.999 117.9 374.199 117.9C372.799 117.9 371.999 118.6 371.999 120C371.999 122.8 371.999 125.5 371.999 128.3C371.999 129.8 372.699 130.5 374.299 130.5C378.299 130.4 382.199 130.5 385.999 130.5Z" fill="#E5241F"/>
<path d="M337.6 113.2C337.6 114.8 337.6 116.2 337.6 117.8C336.9 117.8 336.3 117.8 335.6 117.8C326.4 117.8 317.1 117.8 307.9 117.8C305.5 117.8 305 118.3 305 120.7C305 123 305 125.4 305 127.7C305 130 305.4 130.4 307.7 130.4C317 130.4 326.3 130.4 335.6 130.4C336.2 130.4 336.8 130.4 337.6 130.4C337.6 132 337.6 133.5 337.6 135.1C337 135.1 336.4 135.1 335.9 135.1C326.5 135.1 317.1 135.1 307.6 135.1C302.6 135.1 300 132.6 300 127.5C300 125.1 300 122.7 300 120.3C300 115.9 302.4 113.2 306.7 113.2C316.9 113.2 327.2 113.2 337.6 113.2Z" fill="#E5241F"/>
<path d="M625.502 135.1C623.702 135.1 622.102 135.1 620.402 135.1C620.402 132.8 620.402 130.6 620.402 128.4C620.402 125.8 620.402 123.1 620.402 120.5C620.402 116.2 622.802 113.4 627.102 113.2C632.802 113 638.602 113.2 644.302 113.2C644.502 113.2 644.802 113.3 645.002 113.4C645.002 114.8 645.002 116.2 645.002 117.8C642.302 117.8 639.802 117.8 637.202 117.8C634.102 117.8 631.002 117.8 628.002 117.8C626.302 117.8 625.502 118.5 625.602 120.2C625.702 124.5 625.602 128.8 625.602 133.1C625.502 133.8 625.502 134.4 625.502 135.1Z" fill="#E5241F"/>
<path d="M520.1 128.9C523.9 128.9 523.5 128.5 523.5 132.2C523.5 135.2 523.5 135.1 520.4 135.2C516.4 135.2 516.5 135.6 516.5 131.7C516.5 128.3 516.6 129 520.1 128.9Z" fill="#E5241F"/>
<path d="M266.599 128.9C270.199 129 270.199 128.2 270.199 132.4C270.199 135.1 270.099 135.1 267.399 135.1C262.899 135.1 263.299 135.7 263.199 131.2C263.199 129.4 263.699 128.5 265.599 128.8C265.899 129 266.199 128.9 266.599 128.9Z" fill="#E5241F"/>
</svg>
